<svg width="15" height="15" viewBox="0 0 100 100" xmlns="http://www.w3.org/2000/svg"><path d="M82.271 98.983c5.57 0 9.749-1.375 12.534-4.125s4.178-6.874 4.178-12.374V17.499c0-5.5-1.393-9.624-4.178-12.374S87.842 1 82.27 1h-64.56c-5.57 0-9.748 1.375-12.533 4.125S1 11.999 1 17.499v64.985c0 5.5 1.393 9.624 4.178 12.374s6.963 4.125 12.534 4.125H82.27zM44.057 75.884c-.922 0-1.756-.195-2.501-.585-.745-.39-1.473-1.047-2.182-1.97l-13.36-16.392a7.442 7.442 0 0 1-.93-1.677 4.828 4.828 0 0 1-.347-1.782c0-1.207.408-2.245 1.224-3.114.817-.87 1.828-1.304 3.034-1.304.78 0 1.481.16 2.102.48.621.318 1.269.922 1.943 1.809l10.804 13.944 22.726-36.51c.994-1.633 2.271-2.449 3.832-2.449 1.136 0 2.165.364 3.087 1.091.923.727 1.384 1.712 1.384 2.954 0 .603-.142 1.206-.426 1.81a19.19 19.19 0 0 1-.905 1.703L48.528 73.33c-.568.851-1.224 1.49-1.97 1.916-.745.425-1.578.638-2.5.638z" fill="#000" fill-rule="nonzero"/></svg>