<svg width="15" height="15" viewBox="0 0 100 100" xmlns="http://www.w3.org/2000/svg"><path d="M82.632 98.333c5.216 0 9.137-1.313 11.763-3.938 2.625-2.626 3.938-6.494 3.938-11.603V17.541c0-5.145-1.313-9.021-3.938-11.63C91.769 3.305 87.848 2 82.632 2H17.647c-5.18 0-9.083 1.304-11.709 3.912C3.313 8.52 2 12.396 2 17.54v65.251c0 5.145 1.313 9.021 3.938 11.63 2.626 2.607 6.53 3.911 11.71 3.911h64.984zm-.106-6.546H17.807c-3.016 0-5.313-.781-6.892-2.342-1.58-1.561-2.369-3.885-2.369-6.972V17.86c0-3.087.79-5.41 2.369-6.972 1.579-1.561 3.876-2.342 6.892-2.342h64.719c2.945 0 5.225.781 6.839 2.342 1.614 1.561 2.422 3.885 2.422 6.972v64.613c0 3.087-.808 5.41-2.422 6.972-1.614 1.561-3.894 2.342-6.84 2.342z" fill="#000" fill-rule="nonzero"/></svg>