<svg width="100" height="100" viewBox="0 0 100 100" xmlns="http://www.w3.org/2000/svg"><path fill-rule="nonzero" fill="#000000" d="M30.245 73.164a3.15 3.15 0 0 0 1.479-.835l17.922-17.935L67.583 72.33c.41.41.904.689 1.48.835a3.512 3.512 0 0 0 1.743 0A3.043 3.043 0 0 0 72.3 72.3c.43-.43.718-.932.864-1.509a3.57 3.57 0 0 0 .015-1.728 2.944 2.944 0 0 0-.85-1.48L54.4 49.64l17.93-17.944c.43-.41.713-.904.85-1.48a3.57 3.57 0 0 0-.015-1.728 3.223 3.223 0 0 0-.864-1.51 3.223 3.223 0 0 0-1.509-.863 3.57 3.57 0 0 0-1.728-.015c-.576.137-1.07.43-1.48.879l-17.93 17.914-17.93-17.943a2.856 2.856 0 0 0-1.494-.835 4.037 4.037 0 0 0-1.743 0 2.925 2.925 0 0 0-1.51.864c-.429.43-.712.933-.849 1.509a3.694 3.694 0 0 0 0 1.728c.137.576.41 1.07.82 1.48l17.95 17.951-17.95 17.937a3.15 3.15 0 0 0-.834 1.48 3.57 3.57 0 0 0-.015 1.728c.137.577.43 1.08.879 1.51a3.454 3.454 0 0 0 3.267.864z"/></svg>