<?xml version="1.0" encoding="UTF-8"?>
<svg width="100px" height="100px" viewBox="0 0 100 100" version="1.1" xmlns="http://www.w3.org/2000/svg" xmlns:xlink="http://www.w3.org/1999/xlink">
    <title>Artboard Copy 293</title>
    <g id="Artboard-Copy-293" stroke="none" stroke-width="1" fill="none" fill-rule="evenodd">
        <g id="Group" transform="translate(1.000000, 21.000000)" fill="#3E3E3E">
            <path d="M94.3164763,6.47553168 C95.6623165,6.47553168 96.7793638,6.17784288 97.6676183,5.58246528 C98.5558728,4.98708767 99,4.22846137 99,3.30658637 C99,2.34629991 98.5558728,1.56846788 97.6676183,0.973090278 C96.7793638,0.377712674 95.6623165,0.0800238715 94.3164763,0.0800238715 L4.76427406,0.0800238715 C3.41843393,0.0800238715 2.28792822,0.377712674 1.37275693,0.973090278 C0.457585644,1.56846788 0,2.34629991 0,3.30658637 C0,4.22846137 0.457585644,4.98708767 1.37275693,5.58246528 C2.28792822,6.17784288 3.41843393,6.47553168 4.76427406,6.47553168 L94.3164763,6.47553168 Z" id="Path"></path>
            <path d="M81.2090032,32.6689453 C82.505895,32.6689453 83.595284,32.3904622 84.4771704,31.8334961 C85.3590568,31.2765299 85.8,30.5179036 85.8,29.5576172 C85.8,28.5973307 85.3590568,27.8194987 84.4771704,27.2241211 C83.595284,26.6287435 82.505895,26.3310547 81.2090032,26.3310547 L17.7909968,26.3310547 C16.4422294,26.3310547 15.3398714,26.6287435 14.4839228,27.2241211 C13.6279743,27.8194987 13.2,28.5973307 13.2,29.5576172 C13.2,30.5179036 13.6279743,31.2765299 14.4839228,31.8334961 C15.3398714,32.3904622 16.4422294,32.6689453 17.7909968,32.6689453 L81.2090032,32.6689453 Z" id="Path"></path>
            <path d="M74.3079872,58.8911675 C75.713738,58.8911675 76.8805112,58.6030816 77.8083067,58.0269097 C78.7361022,57.4507378 79.2,56.7017144 79.2,55.7798394 C79.2,54.819553 78.7361022,54.0417209 77.8083067,53.4463433 C76.8805112,52.8509657 75.713738,52.5532769 74.3079872,52.5532769 L31.3763578,52.5532769 C29.914377,52.5532769 28.7194888,52.8509657 27.7916933,53.4463433 C26.8638978,54.0417209 26.4,54.819553 26.4,55.7798394 C26.4,56.7017144 26.8638978,57.4507378 27.7916933,58.0269097 C28.7194888,58.6030816 29.914377,58.8911675 31.3763578,58.8911675 L74.3079872,58.8911675 Z" id="Path"></path>
        </g>
    </g>
</svg>